<?xml version="1.0" standalone="no"?>
<!DOCTYPE svg PUBLIC "-//W3C//DTD SVG 20010904//EN"
 "http://www.w3.org/TR/2001/REC-SVG-20010904/DTD/svg10.dtd">
<svg version="1.0" xmlns="http://www.w3.org/2000/svg"
 width="510.000000pt" height="490.000000pt" viewBox="0 0 510.000000 490.000000"
 preserveAspectRatio="xMidYMid meet">

<g transform="translate(0.000000,490.000000) scale(0.100000,-0.100000)"
fill="#000000" stroke="none">
<path d="M2120 4880 c-142 -23 -257 -50 -375 -88 l-90 -29 862 -864 863 -864
0 842 0 843 -22 14 c-28 17 -189 69 -318 101 -201 51 -253 57 -535 60 -229 3
-287 1 -385 -15z"/>
<path d="M1200 4550 c-205 -119 -528 -410 -677 -610 -262 -350 -428 -765 -483
-1205 -17 -135 -15 -459 5 -590 19 -135 45 -255 54 -255 10 0 1941 1934 1941
1945 0 17 -744 755 -760 754 -8 0 -44 -18 -80 -39z"/>
<path d="M3702 3058 l3 -1513 514 2 c403 2 516 5 523 15 21 32 99 299 122 415
57 288 60 662 7 939 -37 192 -131 468 -220 644 -200 398 -535 760 -914 989
l-37 23 2 -1514z"/>
<path d="M731 1986 l-503 -503 39 -84 c180 -383 520 -765 892 -1003 40 -26 75
-45 77 -43 2 2 3 484 2 1070 l-3 1067 -504 -504z"/>
<path d="M1557 1223 c-4 -3 -7 -233 -7 -509 0 -437 2 -505 15 -518 31 -30 336
-120 515 -151 210 -37 557 -37 771 0 202 34 467 114 635 190 322 147 663 413
886 690 74 93 198 276 198 293 0 9 -373 12 -1503 12 -827 0 -1507 -3 -1510 -7z"/>
</g>
</svg>
